# This file uses centimeters as units for non-parametric coordinates.

v 0.980784 -0.195090 1.000000
v 0.923879 -0.382683 1.000000
v 0.831469 -0.555569 1.000000
v 0.707106 -0.707106 1.000000
v 0.555570 -0.831468 1.000000
v 0.382683 -0.923878 1.000000
v 0.195091 -0.980784 1.000000
v 0.000000 -0.999999 1.000000
v -0.195090 -0.980784 1.000000
v -0.382683 -0.923879 1.000000
v -0.555569 -0.831469 1.000000
v -0.707106 -0.707106 1.000000
v -0.831469 -0.555570 1.000000
v -0.923879 -0.382683 1.000000
v -0.980785 -0.195091 1.000000
v -0.999999 -0.000000 1.000000
v -0.980785 0.195090 1.000000
v -0.923879 0.382683 1.000000
v -0.831469 0.555570 1.000000
v -0.707107 0.707106 1.000000
v -0.555570 0.831469 1.000000
v -0.382683 0.923879 1.000000
v -0.195090 0.980785 1.000000
v -0.000000 1.000000 1.000000
v 0.195090 0.980785 1.000000
v 0.382683 0.923879 1.000000
v 0.555570 0.831470 1.000000
v 0.707107 0.707107 1.000000
v 0.831469 0.555570 1.000000
v 0.923879 0.382683 1.000000
v 0.980785 0.195090 1.000000
v 1.000000 -0.000000 1.000000
v 0.351300 -0.069878 -0.000000
v 0.330918 -0.137070 -0.000000
v 0.297818 -0.198995 -0.000000
v 0.253274 -0.253273 -0.000000
v 0.198996 -0.297818 -0.000000
v 0.137071 -0.330918 -0.000000
v 0.069878 -0.351300 -0.000000
v 0.000000 -0.358183 -0.000000
v -0.069878 -0.351300 -0.000000
v -0.137070 -0.330918 -0.000000
v -0.198996 -0.297818 -0.000000
v -0.253273 -0.253274 -0.000000
v -0.297818 -0.198996 -0.000000
v -0.330918 -0.137071 -0.000000
v -0.351300 -0.069878 -0.000000
v -0.358183 -0.000000 -0.000000
v -0.351301 0.069878 0.000000
v -0.330918 0.137071 0.000000
v -0.297818 0.198996 0.000000
v -0.253274 0.253274 0.000000
v -0.198996 0.297818 0.000000
v -0.137071 0.330918 0.000000
v -0.069878 0.351301 0.000000
v -0.000000 0.358183 0.000000
v 0.069878 0.351301 0.000000
v 0.137071 0.330918 0.000000
v 0.198996 0.297818 0.000000
v 0.253274 0.253274 0.000000
v 0.297818 0.198996 0.000000
v 0.330918 0.137071 0.000000
v 0.351301 0.069878 0.000000
v 0.358183 0.000000 0.000000
vt 0.687489 0.999802
vt 0.687483 0.000001
vt 0.656230 0.000003
vt 0.656241 0.999808
vt 0.624977 0.000006
vt 0.624994 0.999817
vt 0.593724 0.000010
vt 0.593746 0.999829
vt 0.562472 0.000016
vt 0.562498 0.999844
vt 0.531221 0.000022
vt 0.531249 0.999862
vt 0.499971 0.000029
vt 0.500001 0.999880
vt 0.468722 0.000036
vt 0.468752 0.999900
vt 0.437473 0.000043
vt 0.437503 0.999919
vt 0.406225 0.000050
vt 0.406253 0.999938
vt 0.374978 0.000056
vt 0.375003 0.999955
vt 0.343732 0.000061
vt 0.343753 0.999971
vt 0.312486 0.000066
vt 0.312503 0.999983
vt 0.281241 0.000069
vt 0.281253 0.999992
vt 0.249996 0.000071
vt 0.250002 0.999998
vt 0.218751 0.000072
vt 0.218751 1.000000
vt 0.187507 0.000071
vt 0.187501 0.999998
vt 0.156262 0.000069
vt 0.156250 0.999992
vt 0.125017 0.000066
vt 0.125000 0.999983
vt 0.093771 0.000061
vt 0.093749 0.999971
vt 0.062525 0.000056
vt 0.062499 0.999955
vt 0.031278 0.000049
vt 0.031250 0.999938
vt 0.000030 0.000043
vt 0.000000 0.999919
vt 0.968751 0.000036
vt 0.937502 0.000029
vt 0.906251 0.000022
vt 0.906224 0.999862
vt 0.875000 0.000016
vt 0.874975 0.999844
vt 0.843748 0.000010
vt 0.843727 0.999829
vt 0.812496 0.000006
vt 0.812479 0.999817
vt 0.781243 0.000003
vt 0.781231 0.999807
vt 0.749990 0.000001
vt 0.749984 0.999802
vt 0.718736 -0.000000
vt 0.718736 0.999800
vt 0.968721 0.999900
vt 0.999970 0.999919
vt 1.000000 0.000043
vt 0.937472 0.999880
vn -0.825406 0.164186 0.540138
vn -0.825406 0.164186 0.540138
vn -0.777516 0.322057 0.540138
vn -0.777516 0.322057 0.540138
vn -0.699746 0.467554 0.540138
vn -0.699746 0.467554 0.540138
vn -0.595085 0.595084 0.540138
vn -0.595085 0.595084 0.540138
vn -0.467555 0.699745 0.540138
vn -0.467555 0.699745 0.540138
vn -0.322058 0.777515 0.540138
vn -0.322058 0.777515 0.540138
vn -0.164184 0.825406 0.540138
vn -0.164184 0.825406 0.540138
vn -0.000000 0.841577 0.540138
vn -0.000000 0.841577 0.540138
vn 0.164183 0.825406 0.540138
vn 0.164183 0.825406 0.540138
vn 0.322057 0.777516 0.540138
vn 0.322057 0.777516 0.540138
vn 0.467554 0.699746 0.540138
vn 0.467555 0.699746 0.540138
vn 0.595084 0.595085 0.540138
vn 0.595084 0.595085 0.540138
vn 0.699745 0.467555 0.540138
vn 0.699745 0.467555 0.540138
vn 0.777515 0.322058 0.540138
vn 0.777515 0.322058 0.540138
vn 0.825406 0.164184 0.540138
vn 0.825406 0.164184 0.540138
vn 0.841577 0.000001 0.540138
vn 0.841577 0.000001 0.540138
vn 0.825406 -0.164183 0.540138
vn 0.825406 -0.164183 0.540138
vn 0.777515 -0.322057 0.540138
vn 0.777516 -0.322057 0.540138
vn 0.699746 -0.467555 0.540138
vn 0.699746 -0.467554 0.540138
vn 0.595085 -0.595084 0.540138
vn 0.595085 -0.595084 0.540138
vn 0.467555 -0.699745 0.540138
vn 0.467555 -0.699745 0.540138
vn 0.322058 -0.777515 0.540138
vn 0.322058 -0.777515 0.540138
vn 0.164184 -0.825406 0.540138
vn 0.164184 -0.825406 0.540138
vn 0.000000 -0.841577 0.540138
vn 0.000000 -0.841577 0.540138
vn -0.164183 -0.825406 0.540138
vn -0.164183 -0.825406 0.540138
vn -0.322057 -0.777515 0.540138
vn -0.322057 -0.777515 0.540138
vn -0.467555 -0.699746 0.540138
vn -0.467555 -0.699746 0.540138
vn -0.595084 -0.595085 0.540138
vn -0.595084 -0.595085 0.540138
vn -0.699745 -0.467555 0.540138
vn -0.699745 -0.467555 0.540138
vn -0.777515 -0.322058 0.540138
vn -0.777515 -0.322058 0.540138
vn -0.825406 -0.164184 0.540138
vn -0.825406 -0.164184 0.540138
vn -0.841577 0.000003 0.540138
vn -0.841577 0.000002 0.540138
s 1
f 1/1/1 33/2/2 34/3/3 2/4/4
f 2/4/4 34/3/3 35/5/5 3/6/6
f 3/6/6 35/5/5 36/7/7 4/8/8
f 4/8/8 36/7/7 37/9/9 5/10/10
f 5/10/10 37/9/9 38/11/11 6/12/12
f 6/12/12 38/11/11 39/13/13 7/14/14
f 7/14/14 39/13/13 40/15/15 8/16/16
f 8/16/16 40/15/15 41/17/17 9/18/18
f 9/18/18 41/17/17 42/19/19 10/20/20
f 10/20/20 42/19/19 43/21/21 11/22/22
f 11/22/22 43/21/21 44/23/23 12/24/24
f 12/24/24 44/23/23 45/25/25 13/26/26
f 13/26/26 45/25/25 46/27/27 14/28/28
f 14/28/28 46/27/27 47/29/29 15/30/30
f 15/30/30 47/29/29 48/31/31 16/32/32
f 16/32/32 48/31/31 49/33/33 17/34/34
f 17/34/34 49/33/33 50/35/35 18/36/36
f 18/36/36 50/35/35 51/37/37 19/38/38
f 19/38/38 51/37/37 52/39/39 20/40/40
f 20/40/40 52/39/39 53/41/41 21/42/42
f 21/42/42 53/41/41 54/43/43 22/44/44
f 22/44/44 54/43/43 55/45/45 23/46/46
f 23/64/46 55/65/45 56/47/47 24/63/48
f 24/63/48 56/47/47 57/48/49 25/66/50
f 25/66/50 57/48/49 58/49/51 26/50/52
f 26/50/52 58/49/51 59/51/53 27/52/54
f 27/52/54 59/51/53 60/53/55 28/54/56
f 28/54/56 60/53/55 61/55/57 29/56/58
f 29/56/58 61/55/57 62/57/59 30/58/60
f 30/58/60 62/57/59 63/59/61 31/60/62
f 31/60/62 63/59/61 64/61/63 32/62/64
f 32/62/64 64/61/63 33/2/2 1/1/1
