# This file uses centimeters as units for non-parametric coordinates.

v -0.001675 0.000715 0.241259
v -0.025732 -0.028342 0.259845
v -0.025372 0.025975 0.259532
v -0.035979 -0.001092 0.260214
v 0.028882 0.026511 0.259994
v 0.001621 0.036548 0.260239
v 0.029223 -0.028857 0.260290
v 0.001618 -0.038729 0.260340
v 0.039219 -0.001089 0.260365
v -0.033400 -0.015891 0.260055
v 0.016647 -0.036351 0.260352
v 0.036537 0.013972 0.260155
v -0.013044 0.033731 0.259847
v 0.036763 -0.016235 0.260352
v -0.013284 -0.036007 0.260055
v -0.033160 0.013615 0.259847
v 0.016420 0.034088 0.260155
v -0.727114 -0.727142 1.151456
v -0.931405 -0.395410 1.157066
v -1.000109 -0.001135 1.161287
v 0.737034 -0.740869 1.163308
v 0.401992 -0.940510 1.164967
v 0.001576 -1.003876 1.164651
v 0.727965 0.734284 1.155437
v 0.931895 0.400224 1.159720
v 1.003349 -0.001045 1.165314
v -0.717514 0.720021 1.143124
v -0.389057 0.926664 1.151511
v 0.001664 1.001697 1.161951
v 0.937941 -0.404562 1.164967
v -0.395457 -0.931359 1.157066
v -0.925005 0.390715 1.151511
v 0.395947 0.936173 1.159720
vt 0.400000 1.000000
vt 0.999995 0.981991
vt 0.126815 0.981991
vt 0.938648 0.981991
vt 0.187449 0.981991
vt 0.248613 0.981991
vt 0.313426 0.981991
vt 0.378188 0.981991
vt 0.563440 0.981991
vt 0.499313 0.981991
vt 0.438904 0.981991
vt 0.627640 0.981991
vt 0.813424 0.981991
vt 0.749792 0.981991
vt 0.688726 0.981991
vt 0.877097 0.981991
vt 0.749790 0.000000
vt 0.688722 0.000000
vt 0.813424 0.000000
vt 0.499308 0.000000
vt 0.438901 0.000000
vt 0.563435 0.000000
vt 0.248615 0.000000
vt 0.187453 0.000000
vt 0.313426 0.000000
vt 1.000000 0.000000
vt 0.938651 0.000000
vt 0.378186 0.000000
vt 0.627636 0.000000
vt 0.877099 0.000000
vt 0.126819 0.000000
vt 0.000000 0.981991
vt 0.300000 1.000000
vt 0.400000 1.000000
vt 0.063440 0.981991
vt 0.063445 0.000000
vt 0.000005 0.000000
vn -0.002366 -0.467908 0.883774
vn -0.008356 -0.467463 0.883973
vn 0.067123 -0.471839 0.879126
vn -0.071725 -0.461713 0.884125
vn 0.237497 -0.413179 0.879135
vn 0.328262 -0.331828 0.884383
vn 0.330689 -0.329521 0.884342
vn -0.300425 -0.301378 0.904940
vn -0.305065 -0.296035 0.905151
vn -0.223093 -0.385887 0.895165
vn -0.424733 -0.063042 0.903121
vn -0.423212 0.002232 0.906028
vn -0.423107 0.005019 0.906066
vn -0.419897 0.067288 0.905074
vn -0.371805 -0.215396 0.902976
vn -0.002951 0.435277 0.900292
vn -0.008107 0.434916 0.900435
vn -0.068713 0.429794 0.900308
vn -0.287546 0.287500 0.913598
vn -0.288646 0.286358 0.913610
vn -0.359086 0.210027 0.909365
vn 0.063028 0.438873 0.896336
vn 0.483428 0.005190 0.875369
vn 0.479316 0.074162 0.874503
vn 0.483584 0.001470 0.875297
vn -0.211702 0.362818 0.907494
vn 0.223330 0.387265 0.894511
vn 0.314748 0.312661 0.896201
vn 0.308108 0.318352 0.896505
vn 0.485288 -0.071279 0.871444
vn 0.402567 0.232953 0.885253
vn 0.418200 -0.241207 0.875744
vn 0.473093 0.473284 0.743092
vn 0.638011 0.228431 0.735365
vn 0.636866 0.231336 0.735449
vn 0.473305 0.473071 0.743092
vn 0.682811 -0.001111 0.730594
vn 0.682812 0.000462 0.730594
vn -0.472993 0.472747 0.743497
vn -0.224317 0.639824 0.735056
vn -0.230382 0.637437 0.735254
vn -0.472715 0.473024 0.743498
vn 0.001606 0.683733 0.729730
vn -0.000549 0.683734 0.729731
vn -0.473338 -0.472795 0.743246
vn -0.639521 -0.227672 0.734288
vn -0.638030 -0.231420 0.734413
vn -0.472728 -0.473402 0.743249
vn -0.684374 -0.001043 0.729130
vn -0.684375 0.000384 0.729131
vn 0.473506 -0.473399 0.742756
vn 0.230337 -0.637325 0.735365
vn 0.230393 -0.637303 0.735366
vn 0.473387 -0.473517 0.742756
vn 0.001676 -0.682684 0.730712
vn -0.000624 -0.682685 0.730713
vn -0.640185 0.225265 0.734452
vn -0.637753 0.231396 0.734661
vn 0.228028 0.638819 0.734788
vn 0.230446 0.637863 0.734864
vn 0.637304 -0.231066 0.735155
vn 0.637187 -0.231361 0.735163
vn -0.226396 -0.638374 0.735679
vn -0.230326 -0.636835 0.735793
s 1
f 1/33/1 6/35/2 13/32/3
f 17/3/4 6/35/2 1/33/1
s 2
f 13/2/5 3/4/6 1/1/7
s 3
f 1/33/8 5/5/9 17/3/10
s 4
f 12/6/11 1/33/12 9/7/13
f 14/8/14 9/7/13 1/33/12
s 3
f 1/33/8 12/6/15 5/5/9
s 5
f 1/1/16 8/9/17 11/10/18
s 6
f 1/33/19 7/34/20 14/8/21
s 5
f 1/1/16 15/12/22 8/9/17
s 7
f 4/13/23 10/14/24 1/1/25
s 6
f 11/10/26 7/11/20 1/1/19
s 8
f 15/12/27 1/1/28 2/15/29
s 7
f 1/1/25 16/16/30 4/13/23
s 8
f 10/14/31 2/15/29 1/1/28
s 2
f 16/16/32 1/1/7 3/4/6
s 9
f 2/15/33 10/14/34 19/17/35 18/18/36
f 10/14/34 4/13/37 20/19/38 19/17/35
f 7/11/39 11/10/40 22/20/41 21/21/42
f 11/10/40 8/9/43 23/22/44 22/20/41
f 5/5/45 12/6/46 25/23/47 24/24/48
f 12/6/46 9/7/49 26/25/50 25/23/47
f 3/4/51 13/2/52 28/26/53 27/27/54
f 13/32/52 6/35/55 29/36/56 28/37/53
f 14/8/57 7/11/39 21/21/42 30/28/58
f 9/7/49 14/8/57 30/28/58 26/25/50
f 15/12/59 2/15/33 18/18/36 31/29/60
f 8/9/43 15/12/59 31/29/60 23/22/44
f 16/16/61 3/4/51 27/27/54 32/30/62
f 4/13/37 16/16/61 32/30/62 20/19/38
f 17/3/63 5/5/45 24/24/48 33/31/64
f 6/35/55 17/3/63 33/31/64 29/36/56
