# This file uses centimeters as units for non-parametric coordinates.

v 1.056563 0.306059 0.173205
v 0.941348 0.569089 0.173205
v 0.761981 0.793337 0.173205
v 0.530687 0.963520 0.173205
v 0.263227 1.068040 0.173205
v -0.022172 1.099776 0.173205
v -0.306059 1.056564 0.173205
v -0.569089 0.941348 0.173205
v -0.793337 0.761981 0.173205
v -0.963520 0.530687 0.173205
v -1.068041 0.263227 0.173205
v -1.099776 -0.022172 0.173205
v -1.056564 -0.306059 0.173205
v -0.941348 -0.569090 0.173205
v -0.761981 -0.793337 0.173205
v -0.530687 -0.963520 0.173205
v -0.263227 -1.068041 0.173205
v 0.022172 -1.099776 0.173205
v 0.306060 -1.056564 0.173205
v 0.569090 -0.941348 0.173205
v 0.793337 -0.761982 0.173205
v 0.963520 -0.530687 0.173205
v 1.068041 -0.263227 0.173205
v 1.099777 0.022172 0.173205
v 1.075772 0.468105 0.100000
v 0.917962 0.730585 0.100000
v 0.697594 0.943277 0.100000
v 0.429686 1.091686 0.100000
v 0.132495 1.165699 0.100000
v -0.173724 1.160271 0.100000
v -0.468105 1.075773 0.100000
v -0.730585 0.917962 0.100000
v -0.943278 0.697594 0.100000
v -1.091686 0.429686 0.100000
v -1.165699 0.132495 0.100000
v -1.160271 -0.173724 0.100000
v -1.075773 -0.468105 0.100000
v -0.917962 -0.730585 0.100000
v -0.697594 -0.943277 0.100000
v -0.429686 -1.091687 0.100000
v -0.132495 -1.165699 0.100000
v 0.173724 -1.160271 0.100000
v 0.468105 -1.075773 0.100000
v 0.730586 -0.917962 0.100000
v 0.943278 -0.697594 0.100000
v 1.091687 -0.429686 0.100000
v 1.165699 -0.132495 0.100000
v 1.160272 0.173724 0.100000
v 1.053059 0.575382 0.000000
v 0.868257 0.828328 0.000000
v 0.624285 1.024825 -0.000000
v 0.337769 1.151482 0.000000
v 0.028234 1.199667 0.000000
v -0.283225 1.166097 0.000000
v -0.575382 1.053059 0.000000
v -0.828329 0.868258 0.000000
v -1.024826 0.624285 0.000000
v -1.151482 0.337769 0.000000
v -1.199667 0.028234 0.000000
v -1.166097 -0.283225 -0.000000
v -1.053059 -0.575383 0.000000
v -0.868258 -0.828329 0.000000
v -0.624285 -1.024826 0.000000
v -0.337769 -1.151483 0.000000
v -0.028234 -1.199668 0.000000
v 0.283225 -1.166098 0.000000
v 0.575383 -1.053060 0.000000
v 0.828329 -0.868258 0.000000
v 1.024826 -0.624285 0.000000
v 1.151483 -0.337769 0.000000
v 1.199668 -0.028234 0.000000
v 1.166098 0.283225 0.000000
v 1.075772 0.468105 -0.100000
v 0.917962 0.730585 -0.100000
v 0.697594 0.943277 -0.100000
v 0.429686 1.091686 -0.100000
v 0.132495 1.165699 -0.100000
v -0.173724 1.160271 -0.100000
v -0.468105 1.075773 -0.100000
v -0.730585 0.917962 -0.100000
v -0.943278 0.697594 -0.100000
v -1.091686 0.429686 -0.100000
v -1.165699 0.132495 -0.100000
v -1.160271 -0.173724 -0.100000
v -1.075773 -0.468105 -0.100000
v -0.917962 -0.730585 -0.100000
v -0.697594 -0.943277 -0.100000
v -0.429686 -1.091687 -0.100000
v -0.132495 -1.165699 -0.100000
v 0.173724 -1.160271 -0.100000
v 0.468105 -1.075773 -0.100000
v 0.730586 -0.917962 -0.100000
v 0.943278 -0.697594 -0.100000
v 1.091687 -0.429686 -0.100000
v 1.165699 -0.132495 -0.100000
v 1.160272 0.173724 -0.100000
v 1.056563 0.306059 -0.173205
v 0.941348 0.569089 -0.173205
v 0.761981 0.793337 -0.173205
v 0.530687 0.963520 -0.173205
v 0.263227 1.068040 -0.173205
v -0.022172 1.099776 -0.173205
v -0.306059 1.056564 -0.173205
v -0.569089 0.941348 -0.173205
v -0.793337 0.761981 -0.173205
v -0.963520 0.530687 -0.173205
v -1.068041 0.263227 -0.173205
v -1.099776 -0.022172 -0.173205
v -1.056564 -0.306059 -0.173205
v -0.941348 -0.569090 -0.173205
v -0.761981 -0.793337 -0.173205
v -0.530687 -0.963520 -0.173205
v -0.263227 -1.068041 -0.173205
v 0.022172 -1.099776 -0.173205
v 0.306060 -1.056564 -0.173205
v 0.569090 -0.941348 -0.173205
v 0.793337 -0.761982 -0.173205
v 0.963520 -0.530687 -0.173205
v 1.068041 -0.263227 -0.173205
v 1.099777 0.022172 -0.173205
vt 0.000000 0.666667
vt 0.041667 0.666667
vt 0.083333 0.666667
vt 0.125000 0.666667
vt 0.166667 0.666667
vt 0.208333 0.666667
vt 0.250000 0.666667
vt 0.291667 0.666667
vt 0.333333 0.666667
vt 0.375000 0.666667
vt 0.416667 0.666667
vt 0.458333 0.666667
vt 0.500000 0.666667
vt 0.541667 0.666667
vt 0.583333 0.666667
vt 0.625000 0.666667
vt 0.666667 0.666667
vt 0.708333 0.666667
vt 0.750000 0.666667
vt 0.791667 0.666667
vt 0.833333 0.666667
vt 0.875000 0.666667
vt 0.916667 0.666667
vt 0.958333 0.666667
vt 1.000000 0.666667
vt 0.000000 0.583333
vt 0.041667 0.583333
vt 0.083333 0.583333
vt 0.125000 0.583333
vt 0.166667 0.583333
vt 0.208333 0.583333
vt 0.250000 0.583333
vt 0.291667 0.583333
vt 0.333333 0.583333
vt 0.375000 0.583333
vt 0.416667 0.583333
vt 0.458333 0.583333
vt 0.500000 0.583333
vt 0.541667 0.583333
vt 0.583333 0.583333
vt 0.625000 0.583333
vt 0.666667 0.583333
vt 0.708333 0.583333
vt 0.750000 0.583333
vt 0.791667 0.583333
vt 0.833333 0.583333
vt 0.875000 0.583333
vt 0.916667 0.583333
vt 0.958333 0.583333
vt 1.000000 0.583333
vt 0.000000 0.500000
vt 0.041667 0.500000
vt 0.083333 0.500000
vt 0.125000 0.500000
vt 0.166667 0.500000
vt 0.208333 0.500000
vt 0.250000 0.500000
vt 0.291667 0.500000
vt 0.333333 0.500000
vt 0.375000 0.500000
vt 0.416667 0.500000
vt 0.458333 0.500000
vt 0.500000 0.500000
vt 0.541667 0.500000
vt 0.583333 0.500000
vt 0.625000 0.500000
vt 0.666667 0.500000
vt 0.708333 0.500000
vt 0.750000 0.500000
vt 0.791667 0.500000
vt 0.833333 0.500000
vt 0.875000 0.500000
vt 0.916667 0.500000
vt 0.958333 0.500000
vt 1.000000 0.500000
vt 0.000000 0.416667
vt 0.041667 0.416667
vt 0.083333 0.416667
vt 0.125000 0.416667
vt 0.166667 0.416667
vt 0.208333 0.416667
vt 0.250000 0.416667
vt 0.291667 0.416667
vt 0.333333 0.416667
vt 0.375000 0.416667
vt 0.416667 0.416667
vt 0.458333 0.416667
vt 0.500000 0.416667
vt 0.541667 0.416667
vt 0.583333 0.416667
vt 0.625000 0.416667
vt 0.666667 0.416667
vt 0.708333 0.416667
vt 0.750000 0.416667
vt 0.791667 0.416667
vt 0.833333 0.416667
vt 0.875000 0.416667
vt 0.916667 0.416667
vt 0.958333 0.416667
vt 1.000000 0.416667
vt 0.000000 0.333333
vt 0.041667 0.333333
vt 0.083333 0.333333
vt 0.125000 0.333333
vt 0.166667 0.333333
vt 0.208333 0.333333
vt 0.250000 0.333333
vt 0.291667 0.333333
vt 0.333333 0.333333
vt 0.375000 0.333333
vt 0.416667 0.333333
vt 0.458333 0.333333
vt 0.500000 0.333333
vt 0.541667 0.333333
vt 0.583333 0.333333
vt 0.625000 0.333333
vt 0.666667 0.333333
vt 0.708333 0.333333
vt 0.750000 0.333333
vt 0.791667 0.333333
vt 0.833333 0.333333
vt 0.875000 0.333333
vt 0.916667 0.333333
vt 0.958333 0.333333
vt 1.000000 0.333333
vn 0.609885 0.358545 0.706742
vn 0.681901 0.188479 0.706744
vn 0.643493 0.294118 0.706690
vn 0.545444 0.450645 0.706690
vn 0.496306 0.504178 0.706742
vn 0.410222 0.576460 0.706690
vn 0.348903 0.615452 0.706743
vn 0.247046 0.662991 0.706690
vn 0.177724 0.684784 0.706743
vn 0.067033 0.704339 0.706691
vn -0.005566 0.707448 0.706744
vn -0.117547 0.697690 0.706690
vn -0.188478 0.681903 0.706743
vn -0.294117 0.643493 0.706691
vn -0.358545 0.609885 0.706744
vn -0.450644 0.545443 0.706691
vn -0.504177 0.496305 0.706744
vn -0.576459 0.410222 0.706691
vn -0.615451 0.348903 0.706743
vn -0.662991 0.247046 0.706690
vn -0.684784 0.177724 0.706743
vn -0.704340 0.067033 0.706691
vn -0.707448 -0.005566 0.706743
vn -0.697690 -0.117548 0.706691
vn -0.681902 -0.188478 0.706743
vn -0.643493 -0.294118 0.706691
vn -0.609885 -0.358545 0.706743
vn -0.545444 -0.450644 0.706690
vn -0.496306 -0.504178 0.706742
vn -0.410223 -0.576460 0.706690
vn -0.348904 -0.615452 0.706743
vn -0.247046 -0.662991 0.706690
vn -0.177725 -0.684784 0.706743
vn -0.067033 -0.704340 0.706691
vn 0.005566 -0.707448 0.706743
vn 0.117547 -0.697690 0.706691
vn 0.188478 -0.681902 0.706743
vn 0.294117 -0.643493 0.706691
vn 0.358545 -0.609885 0.706744
vn 0.450644 -0.545443 0.706691
vn 0.504177 -0.496305 0.706744
vn 0.576460 -0.410222 0.706691
vn 0.615451 -0.348903 0.706743
vn 0.662991 -0.247045 0.706691
vn 0.684783 -0.177724 0.706743
vn 0.704340 -0.067033 0.706690
vn 0.707449 0.005567 0.706743
vn 0.697689 0.117548 0.706692
vn 0.768030 0.585908 0.258538
vn 0.893503 0.367164 0.258539
vn 0.837087 0.482132 0.258523
vn 0.683779 0.682358 0.258523
vn 0.590216 0.764724 0.258538
vn 0.483873 0.836082 0.258523
vn 0.372180 0.891426 0.258538
vn 0.250991 0.932829 0.258523
vn 0.128780 0.957379 0.258538
vn 0.001005 0.966005 0.258522
vn -0.123396 0.958088 0.258537
vn -0.249050 0.933349 0.258522
vn -0.367162 0.893505 0.258537
vn -0.482131 0.837088 0.258522
vn -0.585907 0.768031 0.258538
vn -0.682358 0.683779 0.258523
vn -0.764724 0.590216 0.258538
vn -0.836082 0.483872 0.258523
vn -0.891426 0.372179 0.258538
vn -0.932829 0.250991 0.258523
vn -0.957379 0.128780 0.258538
vn -0.966005 0.001006 0.258522
vn -0.958088 -0.123395 0.258537
vn -0.933349 -0.249050 0.258522
vn -0.893504 -0.367163 0.258538
vn -0.837087 -0.482132 0.258523
vn -0.768030 -0.585908 0.258539
vn -0.683779 -0.682357 0.258525
vn -0.590216 -0.764723 0.258541
vn -0.483872 -0.836081 0.258526
vn -0.372179 -0.891425 0.258541
vn -0.250991 -0.932828 0.258525
vn -0.128780 -0.957378 0.258539
vn -0.001005 -0.966005 0.258523
vn 0.123396 -0.958088 0.258537
vn 0.249050 -0.933349 0.258522
vn 0.367162 -0.893505 0.258537
vn 0.482132 -0.837087 0.258522
vn 0.585908 -0.768031 0.258537
vn 0.682358 -0.683779 0.258522
vn 0.764724 -0.590216 0.258537
vn 0.836082 -0.483873 0.258522
vn 0.891426 -0.372180 0.258538
vn 0.932829 -0.250991 0.258523
vn 0.957379 -0.128779 0.258539
vn 0.966005 -0.001005 0.258523
vn 0.958087 0.123396 0.258538
vn 0.933348 0.249051 0.258524
vn 0.683779 0.682358 -0.258523
vn 0.837087 0.482132 -0.258523
vn 0.893503 0.367164 -0.258539
vn 0.768030 0.585908 -0.258538
vn 0.483873 0.836082 -0.258523
vn 0.590216 0.764724 -0.258538
vn 0.250991 0.932829 -0.258523
vn 0.372180 0.891426 -0.258538
vn 0.001005 0.966005 -0.258523
vn 0.128780 0.957379 -0.258538
vn -0.249050 0.933349 -0.258522
vn -0.123396 0.958088 -0.258537
vn -0.482131 0.837088 -0.258522
vn -0.367162 0.893505 -0.258537
vn -0.682358 0.683779 -0.258523
vn -0.585907 0.768031 -0.258538
vn -0.836082 0.483872 -0.258523
vn -0.764724 0.590216 -0.258538
vn -0.932829 0.250991 -0.258523
vn -0.891426 0.372179 -0.258538
vn -0.966005 0.001005 -0.258522
vn -0.957379 0.128780 -0.258538
vn -0.933349 -0.249050 -0.258522
vn -0.958088 -0.123396 -0.258537
vn -0.837087 -0.482132 -0.258523
vn -0.893504 -0.367162 -0.258538
vn -0.683779 -0.682357 -0.258525
vn -0.768030 -0.585907 -0.258539
vn -0.483872 -0.836081 -0.258526
vn -0.590216 -0.764723 -0.258541
vn -0.250991 -0.932828 -0.258525
vn -0.372179 -0.891425 -0.258541
vn -0.001005 -0.966005 -0.258523
vn -0.128780 -0.957378 -0.258539
vn 0.249050 -0.933349 -0.258522
vn 0.123396 -0.958088 -0.258537
vn 0.482132 -0.837088 -0.258522
vn 0.367162 -0.893505 -0.258537
vn 0.682358 -0.683779 -0.258521
vn 0.585908 -0.768031 -0.258536
vn 0.836082 -0.483873 -0.258522
vn 0.764724 -0.590216 -0.258537
vn 0.932829 -0.250991 -0.258523
vn 0.891426 -0.372180 -0.258538
vn 0.966005 -0.001005 -0.258523
vn 0.957379 -0.128779 -0.258539
vn 0.933348 0.249051 -0.258524
vn 0.958087 0.123396 -0.258538
vn 0.545444 0.450644 -0.706690
vn 0.643493 0.294118 -0.706691
vn 0.681901 0.188479 -0.706744
vn 0.609885 0.358545 -0.706743
vn 0.410222 0.576460 -0.706690
vn 0.496306 0.504178 -0.706743
vn 0.247046 0.662992 -0.706690
vn 0.348904 0.615452 -0.706743
vn 0.067033 0.704340 -0.706691
vn 0.177725 0.684784 -0.706742
vn -0.117547 0.697690 -0.706691
vn -0.005566 0.707448 -0.706743
vn -0.294118 0.643493 -0.706690
vn -0.188478 0.681902 -0.706743
vn -0.450644 0.545443 -0.706691
vn -0.358545 0.609885 -0.706743
vn -0.576460 0.410222 -0.706691
vn -0.504177 0.496306 -0.706743
vn -0.662991 0.247046 -0.706690
vn -0.615452 0.348903 -0.706743
vn -0.704340 0.067033 -0.706691
vn -0.684784 0.177725 -0.706743
vn -0.697690 -0.117547 -0.706691
vn -0.707448 -0.005566 -0.706743
vn -0.643493 -0.294118 -0.706690
vn -0.681902 -0.188478 -0.706743
vn -0.545444 -0.450644 -0.706690
vn -0.609885 -0.358545 -0.706743
vn -0.410223 -0.576460 -0.706690
vn -0.496306 -0.504178 -0.706742
vn -0.247046 -0.662991 -0.706690
vn -0.348904 -0.615452 -0.706743
vn -0.067033 -0.704340 -0.706691
vn -0.177724 -0.684784 -0.706743
vn 0.117547 -0.697690 -0.706691
vn 0.005566 -0.707448 -0.706743
vn 0.294117 -0.643492 -0.706692
vn 0.188478 -0.681902 -0.706743
vn 0.450643 -0.545442 -0.706692
vn 0.358544 -0.609884 -0.706744
vn 0.576460 -0.410222 -0.706691
vn 0.504177 -0.496305 -0.706744
vn 0.662991 -0.247045 -0.706691
vn 0.615452 -0.348903 -0.706743
vn 0.704340 -0.067033 -0.706690
vn 0.684783 -0.177724 -0.706743
vn 0.697689 0.117548 -0.706691
vn 0.707448 0.005567 -0.706743
s 1
f 2/2/1 1/1/2 25/26/3 26/27/4
f 3/3/5 2/2/1 26/27/4 27/28/6
f 4/4/7 3/3/5 27/28/6 28/29/8
f 5/5/9 4/4/7 28/29/8 29/30/10
f 6/6/11 5/5/9 29/30/10 30/31/12
f 7/7/13 6/6/11 30/31/12 31/32/14
f 8/8/15 7/7/13 31/32/14 32/33/16
f 9/9/17 8/8/15 32/33/16 33/34/18
f 10/10/19 9/9/17 33/34/18 34/35/20
f 11/11/21 10/10/19 34/35/20 35/36/22
f 12/12/23 11/11/21 35/36/22 36/37/24
f 13/13/25 12/12/23 36/37/24 37/38/26
f 14/14/27 13/13/25 37/38/26 38/39/28
f 15/15/29 14/14/27 38/39/28 39/40/30
f 16/16/31 15/15/29 39/40/30 40/41/32
f 17/17/33 16/16/31 40/41/32 41/42/34
f 18/18/35 17/17/33 41/42/34 42/43/36
f 19/19/37 18/18/35 42/43/36 43/44/38
f 20/20/39 19/19/37 43/44/38 44/45/40
f 21/21/41 20/20/39 44/45/40 45/46/42
f 22/22/43 21/21/41 45/46/42 46/47/44
f 23/23/45 22/22/43 46/47/44 47/48/46
f 24/24/47 23/23/45 47/48/46 48/49/48
f 1/25/2 24/24/47 48/49/48 25/50/3
s 2
f 26/27/49 25/26/50 49/51/51 50/52/52
f 27/28/53 26/27/49 50/52/52 51/53/54
f 28/29/55 27/28/53 51/53/54 52/54/56
f 29/30/57 28/29/55 52/54/56 53/55/58
f 30/31/59 29/30/57 53/55/58 54/56/60
f 31/32/61 30/31/59 54/56/60 55/57/62
f 32/33/63 31/32/61 55/57/62 56/58/64
f 33/34/65 32/33/63 56/58/64 57/59/66
f 34/35/67 33/34/65 57/59/66 58/60/68
f 35/36/69 34/35/67 58/60/68 59/61/70
f 36/37/71 35/36/69 59/61/70 60/62/72
f 37/38/73 36/37/71 60/62/72 61/63/74
f 38/39/75 37/38/73 61/63/74 62/64/76
f 39/40/77 38/39/75 62/64/76 63/65/78
f 40/41/79 39/40/77 63/65/78 64/66/80
f 41/42/81 40/41/79 64/66/80 65/67/82
f 42/43/83 41/42/81 65/67/82 66/68/84
f 43/44/85 42/43/83 66/68/84 67/69/86
f 44/45/87 43/44/85 67/69/86 68/70/88
f 45/46/89 44/45/87 68/70/88 69/71/90
f 46/47/91 45/46/89 69/71/90 70/72/92
f 47/48/93 46/47/91 70/72/92 71/73/94
f 48/49/95 47/48/93 71/73/94 72/74/96
f 25/50/50 48/49/95 72/74/96 49/75/51
s 3
f 50/52/97 49/51/98 73/76/99 74/77/100
f 51/53/101 50/52/97 74/77/100 75/78/102
f 52/54/103 51/53/101 75/78/102 76/79/104
f 53/55/105 52/54/103 76/79/104 77/80/106
f 54/56/107 53/55/105 77/80/106 78/81/108
f 55/57/109 54/56/107 78/81/108 79/82/110
f 56/58/111 55/57/109 79/82/110 80/83/112
f 57/59/113 56/58/111 80/83/112 81/84/114
f 58/60/115 57/59/113 81/84/114 82/85/116
f 59/61/117 58/60/115 82/85/116 83/86/118
f 60/62/119 59/61/117 83/86/118 84/87/120
f 61/63/121 60/62/119 84/87/120 85/88/122
f 62/64/123 61/63/121 85/88/122 86/89/124
f 63/65/125 62/64/123 86/89/124 87/90/126
f 64/66/127 63/65/125 87/90/126 88/91/128
f 65/67/129 64/66/127 88/91/128 89/92/130
f 66/68/131 65/67/129 89/92/130 90/93/132
f 67/69/133 66/68/131 90/93/132 91/94/134
f 68/70/135 67/69/133 91/94/134 92/95/136
f 69/71/137 68/70/135 92/95/136 93/96/138
f 70/72/139 69/71/137 93/96/138 94/97/140
f 71/73/141 70/72/139 94/97/140 95/98/142
f 72/74/143 71/73/141 95/98/142 96/99/144
f 49/75/98 72/74/143 96/99/144 73/100/99
s 4
f 74/77/145 73/76/146 97/101/147 98/102/148
f 75/78/149 74/77/145 98/102/148 99/103/150
f 76/79/151 75/78/149 99/103/150 100/104/152
f 77/80/153 76/79/151 100/104/152 101/105/154
f 78/81/155 77/80/153 101/105/154 102/106/156
f 79/82/157 78/81/155 102/106/156 103/107/158
f 80/83/159 79/82/157 103/107/158 104/108/160
f 81/84/161 80/83/159 104/108/160 105/109/162
f 82/85/163 81/84/161 105/109/162 106/110/164
f 83/86/165 82/85/163 106/110/164 107/111/166
f 84/87/167 83/86/165 107/111/166 108/112/168
f 85/88/169 84/87/167 108/112/168 109/113/170
f 86/89/171 85/88/169 109/113/170 110/114/172
f 87/90/173 86/89/171 110/114/172 111/115/174
f 88/91/175 87/90/173 111/115/174 112/116/176
f 89/92/177 88/91/175 112/116/176 113/117/178
f 90/93/179 89/92/177 113/117/178 114/118/180
f 91/94/181 90/93/179 114/118/180 115/119/182
f 92/95/183 91/94/181 115/119/182 116/120/184
f 93/96/185 92/95/183 116/120/184 117/121/186
f 94/97/187 93/96/185 117/121/186 118/122/188
f 95/98/189 94/97/187 118/122/188 119/123/190
f 96/99/191 95/98/189 119/123/190 120/124/192
f 73/100/146 96/99/191 120/124/192 97/125/147
