# This file uses centimeters as units for non-parametric coordinates.

v -0.087176 -0.064526 0.131661
v -0.093699 -0.054058 0.132030
v -0.104306 -0.026619 0.133103
v -0.106480 -0.014292 0.133380
v 0.065138 -0.088291 0.133483
v 0.054573 -0.094684 0.133600
v 0.026914 -0.105069 0.134317
v 0.014410 -0.107091 0.134302
v 0.087406 0.064925 0.132336
v 0.093925 0.054387 0.132632
v 0.104636 0.026734 0.133815
v 0.106897 0.014196 0.134197
v -0.063780 0.086707 0.130393
v -0.053403 0.093299 0.130946
v -0.026084 0.104123 0.132468
v -0.013860 0.106485 0.133159
v 0.088046 -0.065418 0.133524
v 0.094477 -0.054816 0.133646
v 0.104960 -0.027074 0.134432
v 0.107042 -0.014474 0.134465
v -0.064400 -0.087323 0.131697
v -0.053930 -0.093849 0.132075
v -0.026406 -0.104578 0.133388
v -0.013995 -0.106870 0.133899
v -0.086499 0.064003 0.130408
v -0.093116 0.053603 0.130962
v -0.103963 0.026258 0.132451
v -0.106326 0.013998 0.133097
v 0.064548 0.087712 0.132244
v 0.054071 0.094166 0.132525
v 0.026613 0.104632 0.133431
v 0.014291 0.106714 0.133577
v -0.093502 -0.061131 0.126240
v -0.108906 -0.021039 0.127729
v 0.061702 -0.094564 0.127964
v 0.021246 -0.109592 0.128807
v 0.093728 0.061508 0.126888
v 0.109279 0.021055 0.128496
v -0.060426 0.093055 0.125042
v -0.020548 0.108811 0.127291
v 0.094335 -0.061971 0.128008
v 0.109517 -0.021365 0.128946
v -0.061009 -0.093645 0.126279
v -0.020782 -0.109232 0.128129
v -0.092860 0.060640 0.125059
v -0.108655 0.020710 0.127253
v 0.061146 0.094009 0.126787
v 0.021030 0.109184 0.127994
vt 0.078368 0.230654
vt 0.009966 0.409032
vt 0.771002 0.076123
vt 0.591157 0.009188
vt 0.920560 0.772126
vt 0.989611 0.592450
vt 0.231339 0.919371
vt 0.409112 0.989087
vt 0.922901 0.227683
vt 0.990512 0.407905
vt 0.229288 0.079663
vt 0.408308 0.010550
vt 0.080842 0.769074
vt 0.010916 0.591265
vt 0.769031 0.923045
vt 0.590410 0.990499
vt 0.145781 0.214103
vt 0.093903 0.297864
vt 0.066516 0.367733
vt 0.049170 0.466801
vt 0.787900 0.143120
vt 0.703290 0.092378
vt 0.633230 0.065149
vt 0.532630 0.049101
vt 0.853199 0.788806
vt 0.905014 0.704474
vt 0.932673 0.634542
vt 0.950714 0.533750
vt 0.215122 0.851825
vt 0.298130 0.904253
vt 0.368134 0.931825
vt 0.466380 0.950721
vt 0.906849 0.295615
vt 0.855770 0.210738
vt 0.950829 0.466888
vt 0.934272 0.365559
vt 0.296581 0.095153
vt 0.212792 0.147008
vt 0.466410 0.049275
vt 0.366619 0.067569
vt 0.095843 0.702167
vt 0.148498 0.785339
vt 0.049290 0.533806
vt 0.068206 0.632293
vt 0.701798 0.907133
vt 0.785671 0.855860
vt 0.532690 0.950900
vt 0.631789 0.934336
vn -0.707135 -0.459587 0.537345
vn -0.707135 -0.459587 0.537345
vn -0.707135 -0.459587 0.537345
vn -0.825095 -0.157716 0.542534
vn -0.825095 -0.157716 0.542534
vn -0.825095 -0.157716 0.542534
vn 0.439759 -0.716889 0.541002
vn 0.439759 -0.716889 0.541002
vn 0.439759 -0.716889 0.541002
vn 0.133422 -0.828891 0.543266
vn 0.133422 -0.828891 0.543266
vn 0.133422 -0.828891 0.543266
vn 0.709658 0.454135 0.538653
vn 0.709658 0.454135 0.538653
vn 0.709658 0.454135 0.538653
vn 0.823586 0.165031 0.542651
vn 0.823586 0.165031 0.542651
vn 0.823586 0.165031 0.542651
vn -0.473422 0.700381 0.534170
vn -0.473422 0.700381 0.534170
vn -0.473422 0.700381 0.534170
vn -0.189027 0.819919 0.540371
vn -0.189027 0.819919 0.540371
vn -0.189027 0.819919 0.540371
vn 0.716154 -0.440655 0.541245
vn 0.716154 -0.440655 0.541245
vn 0.716154 -0.440655 0.541245
vn 0.827797 -0.138231 0.543732
vn 0.827797 -0.138231 0.543732
vn 0.827797 -0.138231 0.543732
vn -0.460128 -0.707002 0.537057
vn -0.460128 -0.707002 0.537057
vn -0.460128 -0.707002 0.537057
vn -0.174183 -0.822429 0.541545
vn -0.174183 -0.822429 0.541546
vn -0.174183 -0.822429 0.541545
vn -0.699968 0.473732 0.534437
vn -0.699968 0.473732 0.534437
vn -0.699968 0.473732 0.534437
vn -0.820054 0.186564 0.541023
vn -0.820054 0.186564 0.541023
vn -0.820054 0.186564 0.541023
vn 0.452387 0.710940 0.538433
vn 0.452387 0.710940 0.538433
vn 0.452387 0.710940 0.538433
vn 0.146197 0.827221 0.542524
vn 0.146197 0.827221 0.542524
vn 0.146197 0.827221 0.542524
s off
f 2/18/1 33/1/2 1/17/3
f 4/20/4 34/2/5 3/19/6
f 6/22/7 35/3/8 5/21/9
f 8/24/10 36/4/11 7/23/12
f 10/26/13 37/5/14 9/25/15
f 12/28/16 38/6/17 11/27/18
f 14/30/19 39/7/20 13/29/21
f 16/32/22 40/8/23 15/31/24
f 17/34/25 41/9/26 18/33/27
f 19/36/28 42/10/29 20/35/30
f 21/38/31 43/11/32 22/37/33
f 23/40/34 44/12/35 24/39/36
f 25/42/37 45/13/38 26/41/39
f 27/44/40 46/14/41 28/43/42
f 29/46/43 47/15/44 30/45/45
f 31/48/46 48/16/47 32/47/48
