# This file uses centimeters as units for non-parametric coordinates.

v 0.000000 -1.000000 1.167342
v -0.866025 0.500000 1.167342
v 0.866025 0.500000 1.167342
v 0.000000 0.000000 0.000000
vt 0.272846 0.000000
vt 0.000000 0.000000
vt 0.700000 0.000000
vt 0.500000 1.000000
vt 1.000000 0.000000
vt 0.500003 1.000000
vn -0.000000 0.759443 0.650574
vn 0.000000 0.000000 1.000000
vn 0.657697 -0.379721 0.650574
vn -0.657697 -0.379721 0.650574
s 1
f 1/2/1 4/4/2 2/1/3
f 2/1/3 4/4/2 3/3/4
f 3/3/4 4/6/2 1/5/1
